Coordinates
version=1
nRows=10
nColumns=40
inDegrees=yes

Units are S.I. units (second, meters, Newtons, ...)
If the header above contains a line with 'inDegrees', this indicates whether rotational values are in degrees (yes) or radians (no).

endheader
time	pelvis_tilt	pelvis_list	pelvis_rotation	pelvis_tx	pelvis_ty	pelvis_tz	hip_flexion_r	hip_adduction_r	hip_rotation_r	knee_angle_r	knee_angle_r_beta	ankle_angle_r	subtalar_angle_r	mtp_angle_r	hip_flexion_l	hip_adduction_l	hip_rotation_l	knee_angle_l	knee_angle_l_beta	ankle_angle_l	subtalar_angle_l	mtp_angle_l	lumbar_extension	lumbar_bending	lumbar_rotation	arm_flex_r	arm_add_r	arm_rot_r	elbow_flex_r	pro_sup_r	wrist_flex_r	wrist_dev_r	arm_flex_l	arm_add_l	arm_rot_l	elbow_flex_l	pro_sup_l	wrist_flex_l	wrist_dev_l
      6.62500000	     86.25792282	     50.60940452	     87.12004806	      0.40583128	      0.61457157	      0.68510091	     94.05510634	     -6.14965837	      3.63899621	     61.22344947	      1.06855077	      9.79636721	      0.00000000	      0.00000000	     92.30411022	    -23.60818430	     -5.23145958	     62.61210757	      1.09278743	     12.07241387	      0.00000000	      0.00000000	    -42.59093038	    -12.01235703	     -0.42067381	      0.00000000	    -14.99816662	      0.00000000	     75.00017701	     45.00000026	      0.00000000	      0.00000000	      0.00000000	    -14.99816662	      0.00000000	     75.00017701	     45.00000026	      0.00000000	      0.00000000
      6.63000000	     86.38108202	     50.39953783	     87.05537319	      0.40543737	      0.61439443	      0.68616001	     94.00899981	     -6.18456739	      3.53438007	     60.89124872	      1.06275278	      9.72717502	      0.00000000	      0.00000000	     92.32012419	    -23.49096084	     -5.14657804	     62.31679036	      1.08763317	     11.99801879	      0.00000000	      0.00000000	    -42.58236359	    -11.90732286	     -0.47017084	      0.00000000	    -14.99819840	      0.00000000	     75.00017697	     45.00000026	      0.00000000	      0.00000000	      0.00000000	    -14.99819840	      0.00000000	     75.00017697	     45.00000026	      0.00000000	      0.00000000
      6.63500000	     86.65852611	     50.18990051	     87.02274936	      0.40517644	      0.61391213	      0.68727433	     93.94496169	     -6.39012671	      3.30124772	     60.56127941	      1.05699372	      9.60044382	      0.00000000	      0.00000000	     92.35625333	    -23.12757071	     -4.82177806	     61.92611428	      1.08081459	     11.89112715	      0.00000000	      0.00000000	    -42.55503581	    -11.59808387	     -0.75170298	      0.00000000	    -14.99823433	      0.00000000	     75.00017692	     45.00000026	      0.00000000	      0.00000000	      0.00000000	    -14.99823433	      0.00000000	     75.00017692	     45.00000026	      0.00000000	      0.00000000
      6.64000000	     86.44794832	     50.05284980	     86.83478103	      0.40473276	      0.61462426	      0.68846473	     93.84585411	     -5.95047259	      3.48601668	     60.16882763	      1.05014415	      9.50201013	      0.00000000	      0.00000000	     92.20406775	    -23.53522918	     -5.14030476	     61.69853934	      1.07684266	     11.84584316	      0.00000000	      0.00000000	    -42.63090248	    -11.99685161	     -0.38200305	      0.00000000	    -14.99826296	      0.00000000	     75.00017689	     45.00000026	      0.00000000	      0.00000000	      0.00000000	    -14.99826296	      0.00000000	     75.00017689	     45.00000026	      0.00000000	      0.00000000
      6.64500000	     86.42207375	     49.88525420	     86.83421564	      0.40434281	      0.61455448	      0.68966091	     93.79552372	     -5.94053791	      3.45743299	     59.86443408	      1.04483148	      9.28575410	      0.00000000	      0.00000000	     92.11722199	    -23.52436377	     -5.28366031	     61.38514329	      1.07137286	     11.72699116	      0.00000000	      0.00000000	    -42.65703894	    -12.00616516	     -0.49530796	      0.00000000	    -14.99829133	      0.00000000	     75.00017686	     45.00000026	      0.00000000	      0.00000000	      0.00000000	    -14.99829133	      0.00000000	     75.00017686	     45.00000026	      0.00000000	      0.00000000
      6.65000000	     86.52056687	     49.63825049	     86.87212638	      0.40406847	      0.61431556	      0.69075182	     93.79211743	     -6.04891794	      3.37767074	     59.52360554	      1.03888290	      9.16040662	      0.00000000	      0.00000000	     92.13082450	    -23.27829480	     -5.16337738	     60.99934303	      1.06463938	     11.60986801	      0.00000000	      0.00000000	    -42.62011880	    -11.86917518	     -0.60118538	      0.00000000	    -14.99832042	      0.00000000	     75.00017682	     45.00000026	      0.00000000	      0.00000000	      0.00000000	    -14.99832042	      0.00000000	     75.00017682	     45.00000026	      0.00000000	      0.00000000
      6.65500000	     86.75807767	     49.40829978	     86.89583062	      0.40380827	      0.61372915	      0.69195781	     93.72426359	     -6.28182634	      3.17828259	     59.13725278	      1.03213977	      9.03337849	      0.00000000	      0.00000000	     92.16541898	    -22.91786277	     -4.92902639	     60.59471569	      1.05757730	     11.46402527	      0.00000000	      0.00000000	    -42.61733145	    -11.54096977	     -0.89922454	      0.00000000	    -14.99835318	      0.00000000	     75.00017679	     45.00000026	      0.00000000	      0.00000000	      0.00000000	    -14.99835318	      0.00000000	     75.00017679	     45.00000026	      0.00000000	      0.00000000
      6.66000000	     86.56666678	     49.29496405	     86.68791470	      0.40332452	      0.61442253	      0.69338554	     93.58448106	     -5.87181231	      3.29042000	     58.72839937	      1.02500393	      8.85426730	      0.00000000	      0.00000000	     91.95485514	    -23.35983444	     -5.32559315	     60.30614730	      1.05254083	     11.35628517	      0.00000000	      0.00000000	    -42.73468818	    -11.92613796	     -0.54381099	      0.00000000	    -14.99838014	      0.00000000	     75.00017676	     45.00000026	      0.00000000	      0.00000000	      0.00000000	    -14.99838014	      0.00000000	     75.00017676	     45.00000026	      0.00000000	      0.00000000
      6.66500000	     86.50064663	     49.34974954	     86.04097676	      0.40266753	      0.61569718	      0.69503253	     93.19751428	     -5.06417799	      3.36539630	     58.21885377	      1.01611069	      8.58782638	      0.00000000	      0.00000000	     91.69359146	    -24.32453296	     -5.82704726	     60.25025904	      1.05156540	     11.28224324	      0.00000000	      0.00000000	    -42.86425232	    -12.44432528	     -0.52603437	      0.00000000	    -14.99840309	      0.00000000	     75.00017673	     45.00000026	      0.00000000	      0.00000000	      0.00000000	    -14.99840309	      0.00000000	     75.00017673	     45.00000026	      0.00000000	      0.00000000
      6.67000000	     86.77394212	     48.84137647	     86.79201034	      0.40270543	      0.61368318	      0.69581413	     93.51259710	     -6.19147078	      3.03442614	     58.02092099	      1.01265611	      8.54577613	      0.00000000	      0.00000000	     91.93630964	    -22.89258230	     -5.21192509	     59.51716481	      1.03877049	     11.01566293	      0.00000000	      0.00000000	    -42.70291679	    -11.57428625	     -0.99456060	      0.00000000	    -14.99843137	      0.00000000	     75.00017670	     45.00000026	      0.00000000	      0.00000000	      0.00000000	    -14.99843137	      0.00000000	     75.00017670	     45.00000026	      0.00000000	      0.00000000
